<svg xmlns="http://www.w3.org/2000/svg" data-name="Layer 1" viewBox="0 0 512 512"><path fill="#c8c5cc" d="M378.9,331c-1-.3-1.93-.62-2.88-1a92.47,92.47,0,0,1,55-176.48c1,.26,1.95.55,2.92.85A92.48,92.48,0,0,1,378.9,331Z"/><polygon fill="#58575d" points="439.29 255.7 426.76 218.67 387.66 219.14 376.03 256.47 407.94 279.06 439.29 255.7"/><path fill="#58575d" d="M480 298.78l-12.51-37 31.31-23.33A92.72 92.72 0 0 1 480 298.78zM334.46 300.72a92.7 92.7 0 0 1-20.38-59.83l.33-.25 32 22.66-11.66 37.41zM378.9 331c-1-.3-1.93-.62-2.88-1l0-.11 31.43-23.42 31.92 22.61A92.1 92.1 0 0 1 378.9 331zM443.48 190.8l-12.56-37.13.09-.06c1 .26 1.95.55 2.92.85a92.1 92.1 0 0 1 48.67 35.87zM329.5 192.22l-.13-.39a92.67 92.67 0 0 1 50.75-37.66l.23.16-11.66 37.42z"/><path fill="#1bb1c2" d="M299.52,414.35c0,4.48-1.45,9.07-4.79,13.82-11.38,16.19-49.45,20.07-65.61,8.67L46.19,307.75c-26.9-19-17.61-56.21,1.34-83.15l20.33-28.5,4.34,1.53,82.18,29h0l4.67,21,26.05-10.18,35,64.85a376.5,376.5,0,0,0,67.58,87.84C294.64,398.19,299.52,406.11,299.52,414.35Z"/><path fill="#b79b7b" d="M185.11,237.44l-13.94,9.64-39.51,11.25a41.83,41.83,0,0,1-39.32-24.47L72.2,197.63,8.89,83.74,113.14,41.12l39.44,177.57L157,201.11l20.28,12.51,4.06,13.52Z"/><path fill="#3c3b41" d="M178.35 287a7.5 7.5 0 0 1-3.57-14.1L202.5 258a7.5 7.5 0 1 1 7.11 13.21L181.9 286.1A7.46 7.46 0 0 1 178.35 287zM199.59 314.41A7.5 7.5 0 0 1 196 300.3l27.71-14.93a7.5 7.5 0 0 1 7.12 13.2l-27.72 14.94A7.46 7.46 0 0 1 199.59 314.41zM213.76 341.32a7.5 7.5 0 0 1-3.56-14.1l27.71-14.94A7.5 7.5 0 0 1 245 325.49l-27.71 14.93A7.46 7.46 0 0 1 213.76 341.32zM290.21 422.18c-.26 0-.54 0-.85-.07-8.31-.95-36.26-12.7-70.64-36.12-38.14-26-63.84-52.55-68.74-71.09a7.5 7.5 0 0 0-9.17-5.34 7.39 7.39 0 0 0-2.42 1.14 7.49 7.49 0 0 0-2.91 8c12.51 47.32 115.62 111 149.37 117.78h0l13.39-14.95A7.5 7.5 0 0 0 290.21 422.18zM51.88 218.5a7 7 0 0 1 1.22 1.09C80.32 249.85 86.26 278 86.45 296.31c.21 20.26-6.36 33.33-6.64 33.87a8.08 8.08 0 0 1-.54.91L66.9 322.37a67.76 67.76 0 0 0 4.54-26.73c-.47-22.06-9.94-43.76-28.17-64.53zM367 470.88q-15.76 0-34.87-6.65A7.5 7.5 0 1 1 337 450.07c22 7.66 39.46 7.76 52 .29 12-7.15 19.76-21.4 23.14-42.35A7.5 7.5 0 1 1 427 410.39c-4.12 25.54-14.3 43.32-30.27 52.85C388.15 468.34 378.2 470.88 367 470.88z"/><path d="M292.74 385.58a5.22 5.22 0 0 0-.46-.48l-49.12-58.33 2.3-1.25a7.5 7.5 0 1 0-7.11-13.2l-.18.1-3.2 1.72c-.19-.31-.39-.62-.58-.94q-3.72-6-7.22-12.21l3.79-2a7.5 7.5 0 0 0-5.68-13.8h0a7.07 7.07 0 0 0-1.43.59L220 287.81l-.35-.65-8.85-16.43a7.49 7.49 0 0 0-7.07-13.1L191.56 235l-5-18.82c-3.62-13.57-18.55-21.63-32.25-21.88L119.88 39.85a7.5 7.5 0 1 0-14.64 3.26l40.14 180.33 4.43 19.89-20.19 7.89a34.31 34.31 0 0 1-31-20.1 5.28 5.28 0 0 0-.27-.53L81.9 201.05l-67-120.59A7.5 7.5 0 1 0 1.76 87.75L60.39 193.22l-19.47 27.3h0l-.09.13c-21.82 31-30.13 72 .47 93.6L224.23 443.33c8.24 5.82 19.52 7.91 30.09 7.91a81.34 81.34 0 0 0 13.77-1.17c8.55-1.48 24.09-5.69 32.2-17.22l.09-.14 0 0a.43.43 0 0 0 0-.07C315.12 411.4 298.88 392.66 292.74 385.58zM172 220.07l3.53 13.19-11.62 4.54-6.25-28.1C164.17 210.88 170.6 214.71 172 220.07zm-87 17.56a49.27 49.27 0 0 0 44.75 28.59l1.49 0a7.63 7.63 0 0 0 2.5-.51l47.27-18.48 9.43 17.48-15.29 8.24a7.5 7.5 0 1 0 7.12 13.21l15.29-8.24 8.82 16.37.35.65-10.67 5.75a7.5 7.5 0 0 0 3.51 14.11h.05a7.46 7.46 0 0 0 3.55-.9L214 308.1q3.49 6.19 7.2 12.22l.58.95-11.11 6a7.49 7.49 0 0 0 3.16 14.08 2.82 2.82 0 0 0 .41 0 7.45 7.45 0 0 0 3.55-.89l12.14-6.55a383.45 383.45 0 0 0 51.73 61.75c10.95 12.71 11.46 19.89 7.74 26.45l-.23.4c-7.85-.65-36.1-12.39-71-36.15-38.13-26-63.83-52.55-68.74-71.1a7.49 7.49 0 0 0-9.16-5.33 7.38 7.38 0 0 0-1.85.77 7.49 7.49 0 0 0-3.49 8.4C146.24 362 231.9 418.2 273 433.49a59.5 59.5 0 0 1-7.49 1.8c-12.81 2.22-25.94.53-32.66-4.21L82.06 324.65l-.36-.25a85.27 85.27 0 0 0 4.18-27.72c-.18-17.38-5.56-43.65-29.4-72.15l.41-.58 11.57-16.21zM70.87 296a73.11 73.11 0 0 1-2.12 19.26L49.94 302C28 286.51 36.63 257.24 47.81 237.62 62.69 256.52 70.44 276.12 70.87 296zm349.3 106.17a7.5 7.5 0 0 0-8.6 6.21c-3.37 20.95-11.16 35.2-23.14 42.35-12.52 7.47-30 7.37-52-.29a7.5 7.5 0 1 0-4.94 14.16q19.08 6.66 34.86 6.66c11.26 0 21.2-2.55 29.75-7.65 16-9.52 26.15-27.3 30.26-52.85A7.49 7.49 0 0 0 420.17 402.17zM506.3 238.1h0a100 100 0 0 0-70.14-90.79c-1.06-.33-2.12-.64-3.15-.92h0a100 100 0 0 0-59.44 190.79c1 .37 2.09.71 3.14 1h0a100.11 100.11 0 0 0 29.83 4.59h0a98 98 0 0 0 16.82-1.48A100.93 100.93 0 0 0 442 336.18h0a99.79 99.79 0 0 0 59.86-63.68c.43-1.4.84-2.8 1.21-4.22a99.05 99.05 0 0 0 3.33-25.82C506.41 241 506.37 239.55 506.3 238.1zm-62.39-71.62l1.74.87 1.47.79c.57.31 1.14.62 1.7.94l1.44.84 1.65 1 1.4.9 1.6 1.09c.46.31.91.63 1.36.95l1.56 1.16 1.3 1c.51.4 1 .82 1.52 1.23l1.26 1.06 1.46 1.31 1.21 1.1 1.43 1.4.88.86-18.05.22L443 166.06zm-57.52-6.31a84.65 84.65 0 0 1 38.71-.31l10.16 30-12.78 21.31-30.92.37-14.62-21.1zm44.05 92.77l-22.62 16.85-23-16.29 8.39-26.92 28.2-.34zm-61.81-86.18l-5.48 17.56-18.48.22A85.3 85.3 0 0 1 368.63 166.76zm-43.34 50.71a84.8 84.8 0 0 1 7.87-17.79l31.64-.38 14.61 21.1-9.26 29.73L348 255.23l-26.33-18.65A84.64 84.64 0 0 1 325.29 217.47zm6.86 66.35a85.41 85.41 0 0 1-9.62-28.24l15.09 10.69zm42.55 37.76A84.69 84.69 0 0 1 343 299.34l9.26-29.7 22.16-5.11 25.92 18.36L400 302.74zM421 326.49c-.63.11-1.27.23-1.9.32s-1.12.16-1.68.23l-1.89.24-1.7.16-1.87.15-1.72.09c-.62 0-1.25.05-1.87.06s-1.15 0-1.73 0h-1.86l-1.73-.06-1.87-.1-1.72-.12-1.89-.19-1.68-.19-1.94-.28c-.32 0-.63-.1-.95-.15l14.54-10.83 14.73 10.43zm19.32-5.82L415 302.74l.38-19.86L441 263.75l20.72 4.47 9.83 29.07A84.92 84.92 0 0 1 440.3 320.67zm50.08-64.9c-.08.51-.15 1-.24 1.54-.12.73-.28 1.45-.42 2.17-.1.48-.18.95-.29 1.43-.17.79-.37 1.58-.57 2.37-.1.4-.19.8-.29 1.2-.32 1.19-.66 2.37-1 3.55s-.75 2.35-1.17 3.5c-.14.39-.29.76-.44 1.14-.28.77-.57 1.54-.88 2.3-.19.46-.39.91-.59 1.37-.29.67-.56 1.33-.86 2s-.48 1-.71 1.47-.54 1.12-.82 1.67l-5.72-16.92 14.32-10.67C490.59 254.5 490.48 255.13 490.38 255.77zm-24.63-2L445 249.27 435 219.55l12.79-21.3 30.8-.38a85 85 0 0 1 12.48 37z"/></svg>